<svg xmlns="http://www.w3.org/2000/svg" width="1000" height="750" viewBox="0 0 1000 750">
  
  <defs>
    <radialGradient id="warm" cx="50%" cy="28%" r="85%">
      <stop offset="0%" stop-color="#2a1d10"/>
      <stop offset="45%" stop-color="#17120c"/>
      <stop offset="100%" stop-color="#0c0b09"/>
    </radialGradient>
    <radialGradient id="spot" cx="50%" cy="12%" r="60%">
      <stop offset="0%" stop-color="#e3c270" stop-opacity="0.30"/>
      <stop offset="60%" stop-color="#c9a24b" stop-opacity="0.06"/>
      <stop offset="100%" stop-color="#c9a24b" stop-opacity="0"/>
    </radialGradient>
    <radialGradient id="plate" cx="42%" cy="38%" r="65%">
      <stop offset="0%" stop-color="#3a352c"/>
      <stop offset="70%" stop-color="#211d17"/>
      <stop offset="100%" stop-color="#15120d"/>
    </radialGradient>
    <radialGradient id="brass" cx="40%" cy="35%" r="70%">
      <stop offset="0%" stop-color="#e8cf86"/>
      <stop offset="55%" stop-color="#c9a24b"/>
      <stop offset="100%" stop-color="#7c5e25"/>
    </radialGradient>
    <radialGradient id="rice" cx="45%" cy="38%" r="70%">
      <stop offset="0%" stop-color="#fbf7ec"/>
      <stop offset="100%" stop-color="#d9cfb6"/>
    </radialGradient>
    <linearGradient id="red" x1="0" y1="0" x2="1" y2="1">
      <stop offset="0%" stop-color="#e0531f"/>
      <stop offset="100%" stop-color="#9c2b12"/>
    </linearGradient>
    <linearGradient id="meat" x1="0" y1="0" x2="1" y2="1">
      <stop offset="0%" stop-color="#7a4326"/>
      <stop offset="100%" stop-color="#42220f"/>
    </linearGradient>
    <radialGradient id="pot" cx="42%" cy="35%" r="72%">
      <stop offset="0%" stop-color="#4a4036"/>
      <stop offset="100%" stop-color="#241d16"/>
    </radialGradient>
    <filter id="soft"><feGaussianBlur stdDeviation="6"/></filter>
    <filter id="soft2"><feGaussianBlur stdDeviation="2.4"/></filter>
    <filter id="blur18"><feGaussianBlur stdDeviation="18"/></filter>
  </defs>
  <rect width="1000" height="750" fill="url(#warm)"/><rect width="1000" height="750" fill="url(#spot)"/>
  <circle cx="1" cy="48" r="28" fill="#c9a24b" opacity="0.024" filter="url(#blur18)"/><circle cx="6" cy="273" r="7" fill="#c9a24b" opacity="0.052" filter="url(#blur18)"/><circle cx="685" cy="8" r="7" fill="#c9a24b" opacity="0.049" filter="url(#blur18)"/><circle cx="913" cy="446" r="25" fill="#c9a24b" opacity="0.054" filter="url(#blur18)"/><circle cx="813" cy="525" r="7" fill="#c9a24b" opacity="0.028" filter="url(#blur18)"/><circle cx="671" cy="309" r="7" fill="#c9a24b" opacity="0.048" filter="url(#blur18)"/><circle cx="540" cy="243" r="28" fill="#c9a24b" opacity="0.068" filter="url(#blur18)"/><circle cx="512" cy="17" r="17" fill="#c9a24b" opacity="0.048" filter="url(#blur18)"/><circle cx="82" cy="50" r="26" fill="#c9a24b" opacity="0.026" filter="url(#blur18)"/><circle cx="692" cy="597" r="7" fill="#c9a24b" opacity="0.025" filter="url(#blur18)"/><circle cx="433" cy="85" r="14" fill="#c9a24b" opacity="0.050" filter="url(#blur18)"/><circle cx="712" cy="496" r="21" fill="#c9a24b" opacity="0.053" filter="url(#blur18)"/><circle cx="180" cy="444" r="6" fill="#c9a24b" opacity="0.026" filter="url(#blur18)"/><circle cx="442" cy="265" r="17" fill="#c9a24b" opacity="0.061" filter="url(#blur18)"/>
  <rect width="1000" height="750" fill="#000" opacity="0"/>
  <rect x="0" y="495" width="1000" height="255.00000000000003" fill="#0c0b09" opacity="0.55"/>
  <ellipse cx="500" cy="368" rx="128" ry="76" fill="#000" opacity="0.35" filter="url(#soft)"/>
  <ellipse cx="500" cy="360" rx="120" ry="70" fill="url(#pot)" stroke="#c9a24b" stroke-opacity="0.5" stroke-width="2.5"/>
  <ellipse cx="500" cy="360" rx="86.39999999999999" ry="50.4" fill="none" stroke="#c9a24b" stroke-opacity="0.2"/>
  <ellipse cx="470" cy="339" rx="38.4" ry="9.8" fill="#fff" opacity="0.05"/><path d="M620 360 q60 0 60 14 q0 14 -26 14 q-20 0 -34 -16" fill="#1a150f" stroke="#c9a24b" stroke-opacity="0.4" stroke-width="2"/><rect x="511" y="350" width="46" height="20" rx="9" fill="#b8431f" stroke="#7a1f0c" stroke-width="1.5" transform="rotate(-23 535 360)"/><rect x="540" y="361" width="46" height="20" rx="9" fill="#b8431f" stroke="#7a1f0c" stroke-width="1.5" transform="rotate(-11 564 371)"/><rect x="440" y="348" width="46" height="20" rx="9" fill="#b8431f" stroke="#7a1f0c" stroke-width="1.5" transform="rotate(-3 464 358)"/><rect x="473" y="360" width="46" height="20" rx="9" fill="#b8431f" stroke="#7a1f0c" stroke-width="1.5" transform="rotate(26 497 370)"/><rect x="495" y="364" width="46" height="20" rx="9" fill="#b8431f" stroke="#7a1f0c" stroke-width="1.5" transform="rotate(11 519 374)"/><rect x="490" y="334" width="46" height="20" rx="9" fill="#b8431f" stroke="#7a1f0c" stroke-width="1.5" transform="rotate(-50 514 344)"/><rect x="488" y="384" width="46" height="20" rx="9" fill="#b8431f" stroke="#7a1f0c" stroke-width="1.5" transform="rotate(11 512 394)"/><rect x="441" y="342" width="46" height="20" rx="9" fill="#b8431f" stroke="#7a1f0c" stroke-width="1.5" transform="rotate(-32 465 352)"/><rect x="454" y="385" width="46" height="20" rx="9" fill="#b8431f" stroke="#7a1f0c" stroke-width="1.5" transform="rotate(-59 478 395)"/><rect x="492" y="375" width="46" height="20" rx="9" fill="#b8431f" stroke="#7a1f0c" stroke-width="1.5" transform="rotate(26 516 385)"/><rect x="506" y="352" width="46" height="20" rx="9" fill="#b8431f" stroke="#7a1f0c" stroke-width="1.5" transform="rotate(46 530 362)"/><rect x="469" y="349" width="46" height="20" rx="9" fill="#b8431f" stroke="#7a1f0c" stroke-width="1.5" transform="rotate(13 493 359)"/><rect x="500" y="346" width="46" height="20" rx="9" fill="#b8431f" stroke="#7a1f0c" stroke-width="1.5" transform="rotate(48 524 356)"/><rect x="532" y="354" width="46" height="20" rx="9" fill="#b8431f" stroke="#7a1f0c" stroke-width="1.5" transform="rotate(37 556 364)"/><rect x="497" y="346" width="46" height="20" rx="9" fill="#b8431f" stroke="#7a1f0c" stroke-width="1.5" transform="rotate(-40 521 356)"/><rect x="499" y="308" width="46" height="20" rx="9" fill="#b8431f" stroke="#7a1f0c" stroke-width="1.5" transform="rotate(28 523 318)"/><rect x="575" y="387" width="3" height="14" rx="1.5" fill="#7bbf5a" transform="rotate(39 574.9714451609046 387.0472915945795)"/><rect x="463" y="370" width="3" height="14" rx="1.5" fill="#7bbf5a" transform="rotate(2 463.2574122577241 370.39668934205395)"/><rect x="568" y="390" width="3" height="14" rx="1.5" fill="#7bbf5a" transform="rotate(32 567.7872158553391 389.84212841132756)"/><rect x="556" y="315" width="3" height="14" rx="1.5" fill="#7bbf5a" transform="rotate(60 556.1328728129774 315.1160206273738)"/><rect x="568" y="364" width="3" height="14" rx="1.5" fill="#7bbf5a" transform="rotate(61 567.6776023547527 364.4776657966327)"/><rect x="501" y="392" width="3" height="14" rx="1.5" fill="#7bbf5a" transform="rotate(39 501.4043529175242 391.7756908977291)"/><rect x="564" y="405" width="3" height="14" rx="1.5" fill="#7bbf5a" transform="rotate(38 564.1384369177457 404.825565931306)"/><rect x="547" y="361" width="3" height="14" rx="1.5" fill="#7bbf5a" transform="rotate(20 546.6859741004585 360.7000238428358)"/><rect x="432" y="320" width="3" height="14" rx="1.5" fill="#7bbf5a" transform="rotate(74 432.18497047535374 319.6792675623108)"/><rect x="441" y="347" width="3" height="14" rx="1.5" fill="#7bbf5a" transform="rotate(50 441.3356111693828 346.57015428951485)"/><circle cx="480" cy="357" r="1.6" fill="#f3e6c8"/><circle cx="437" cy="348" r="1.6" fill="#f3e6c8"/><circle cx="448" cy="367" r="1.6" fill="#f3e6c8"/><circle cx="508" cy="402" r="1.6" fill="#f3e6c8"/><circle cx="436" cy="408" r="1.6" fill="#f3e6c8"/><circle cx="579" cy="387" r="1.6" fill="#f3e6c8"/><circle cx="510" cy="347" r="1.6" fill="#f3e6c8"/><circle cx="558" cy="375" r="1.6" fill="#f3e6c8"/><circle cx="500" cy="341" r="1.6" fill="#f3e6c8"/><circle cx="505" cy="336" r="1.6" fill="#f3e6c8"/><circle cx="574" cy="367" r="1.6" fill="#f3e6c8"/><circle cx="566" cy="325" r="1.6" fill="#f3e6c8"/><circle cx="445" cy="406" r="1.6" fill="#f3e6c8"/><circle cx="531" cy="339" r="1.6" fill="#f3e6c8"/><circle cx="552" cy="346" r="1.6" fill="#f3e6c8"/><circle cx="561" cy="358" r="1.6" fill="#f3e6c8"/><circle cx="501" cy="333" r="1.6" fill="#f3e6c8"/><circle cx="436" cy="390" r="1.6" fill="#f3e6c8"/><path d="M474 300 C 456 260, 492 230, 474 190 S 458 140, 474 100" stroke="#f5efe2" stroke-opacity="0.16" stroke-width="9" fill="none" stroke-linecap="round" filter="url(#soft)"/><path d="M500 300 C 482 260, 518 230, 500 190 S 484 140, 500 100" stroke="#f5efe2" stroke-opacity="0.16" stroke-width="9" fill="none" stroke-linecap="round" filter="url(#soft)"/><path d="M526 300 C 508 260, 544 230, 526 190 S 510 140, 526 100" stroke="#f5efe2" stroke-opacity="0.16" stroke-width="9" fill="none" stroke-linecap="round" filter="url(#soft)"/>
  <circle cx="57" cy="37" r="0.26" fill="#000" opacity="0.18"/><circle cx="480" cy="598" r="0.89" fill="#000" opacity="0.18"/><circle cx="243" cy="102" r="0.51" fill="#000" opacity="0.18"/><circle cx="856" cy="358" r="0.64" fill="#000" opacity="0.18"/><circle cx="411" cy="668" r="0.52" fill="#000" opacity="0.18"/><circle cx="103" cy="486" r="0.70" fill="#000" opacity="0.18"/><circle cx="683" cy="522" r="0.62" fill="#000" opacity="0.18"/><circle cx="359" cy="362" r="0.37" fill="#000" opacity="0.18"/><circle cx="576" cy="311" r="0.63" fill="#000" opacity="0.18"/><circle cx="665" cy="677" r="0.33" fill="#000" opacity="0.18"/><circle cx="776" cy="464" r="0.85" fill="#000" opacity="0.18"/><circle cx="77" cy="714" r="0.70" fill="#000" opacity="0.18"/><circle cx="559" cy="690" r="0.22" fill="#000" opacity="0.18"/><circle cx="520" cy="69" r="0.04" fill="#000" opacity="0.18"/><circle cx="817" cy="335" r="0.44" fill="#000" opacity="0.18"/><circle cx="67" cy="549" r="0.07" fill="#000" opacity="0.18"/><circle cx="448" cy="125" r="0.77" fill="#000" opacity="0.18"/><circle cx="537" cy="140" r="0.30" fill="#000" opacity="0.18"/><circle cx="224" cy="50" r="0.31" fill="#000" opacity="0.18"/><circle cx="309" cy="644" r="0.09" fill="#000" opacity="0.18"/><circle cx="95" cy="573" r="0.43" fill="#000" opacity="0.18"/><circle cx="956" cy="552" r="0.34" fill="#000" opacity="0.18"/><circle cx="321" cy="247" r="0.79" fill="#000" opacity="0.18"/><circle cx="951" cy="266" r="0.60" fill="#000" opacity="0.18"/><circle cx="356" cy="733" r="0.82" fill="#000" opacity="0.18"/><circle cx="770" cy="64" r="0.81" fill="#000" opacity="0.18"/><circle cx="282" cy="365" r="0.43" fill="#000" opacity="0.18"/><circle cx="786" cy="622" r="0.43" fill="#000" opacity="0.18"/><circle cx="142" cy="172" r="0.46" fill="#000" opacity="0.18"/><circle cx="852" cy="160" r="0.66" fill="#000" opacity="0.18"/><circle cx="175" cy="333" r="0.88" fill="#000" opacity="0.18"/><circle cx="271" cy="488" r="0.75" fill="#000" opacity="0.18"/><circle cx="485" cy="281" r="0.14" fill="#000" opacity="0.18"/><circle cx="332" cy="419" r="0.62" fill="#000" opacity="0.18"/><circle cx="515" cy="697" r="0.47" fill="#000" opacity="0.18"/><circle cx="978" cy="492" r="0.67" fill="#000" opacity="0.18"/><circle cx="36" cy="359" r="0.57" fill="#000" opacity="0.18"/><circle cx="196" cy="286" r="0.81" fill="#000" opacity="0.18"/><circle cx="37" cy="573" r="0.78" fill="#000" opacity="0.18"/><circle cx="355" cy="453" r="0.08" fill="#000" opacity="0.18"/><circle cx="77" cy="343" r="0.72" fill="#000" opacity="0.18"/><circle cx="718" cy="299" r="0.36" fill="#000" opacity="0.18"/><circle cx="557" cy="517" r="0.65" fill="#000" opacity="0.18"/><circle cx="32" cy="537" r="0.23" fill="#000" opacity="0.18"/><circle cx="763" cy="84" r="0.38" fill="#000" opacity="0.18"/><circle cx="137" cy="182" r="0.43" fill="#000" opacity="0.18"/><circle cx="875" cy="345" r="0.72" fill="#000" opacity="0.18"/><circle cx="703" cy="6" r="0.22" fill="#000" opacity="0.18"/><circle cx="721" cy="102" r="0.56" fill="#000" opacity="0.18"/><circle cx="122" cy="64" r="0.86" fill="#000" opacity="0.18"/><circle cx="505" cy="33" r="0.06" fill="#000" opacity="0.18"/><circle cx="301" cy="532" r="0.71" fill="#000" opacity="0.18"/><circle cx="84" cy="62" r="0.01" fill="#000" opacity="0.18"/><circle cx="574" cy="508" r="0.54" fill="#000" opacity="0.18"/><circle cx="364" cy="32" r="0.72" fill="#000" opacity="0.18"/><circle cx="174" cy="432" r="0.88" fill="#000" opacity="0.18"/><circle cx="336" cy="238" r="0.40" fill="#000" opacity="0.18"/><circle cx="979" cy="264" r="0.07" fill="#000" opacity="0.18"/><circle cx="649" cy="174" r="0.18" fill="#000" opacity="0.18"/><circle cx="894" cy="140" r="0.78" fill="#000" opacity="0.18"/><circle cx="62" cy="543" r="0.71" fill="#000" opacity="0.18"/><circle cx="69" cy="241" r="0.05" fill="#000" opacity="0.18"/><circle cx="26" cy="234" r="0.06" fill="#000" opacity="0.18"/><circle cx="633" cy="679" r="0.39" fill="#000" opacity="0.18"/><circle cx="462" cy="712" r="0.06" fill="#000" opacity="0.18"/><circle cx="94" cy="561" r="0.74" fill="#000" opacity="0.18"/><circle cx="152" cy="522" r="0.02" fill="#000" opacity="0.18"/><circle cx="820" cy="722" r="0.45" fill="#000" opacity="0.18"/><circle cx="855" cy="504" r="0.11" fill="#000" opacity="0.18"/><circle cx="746" cy="561" r="0.33" fill="#000" opacity="0.18"/><circle cx="882" cy="637" r="0.61" fill="#000" opacity="0.18"/><circle cx="604" cy="661" r="0.35" fill="#000" opacity="0.18"/><circle cx="714" cy="604" r="0.06" fill="#000" opacity="0.18"/><circle cx="392" cy="93" r="0.79" fill="#000" opacity="0.18"/><circle cx="203" cy="143" r="0.68" fill="#000" opacity="0.18"/><circle cx="211" cy="394" r="0.19" fill="#000" opacity="0.18"/><circle cx="114" cy="533" r="0.54" fill="#000" opacity="0.18"/><circle cx="601" cy="231" r="0.83" fill="#000" opacity="0.18"/><circle cx="634" cy="658" r="0.64" fill="#000" opacity="0.18"/><circle cx="517" cy="746" r="0.79" fill="#000" opacity="0.18"/><circle cx="477" cy="686" r="0.43" fill="#000" opacity="0.18"/><circle cx="40" cy="373" r="0.51" fill="#000" opacity="0.18"/><circle cx="639" cy="583" r="0.04" fill="#000" opacity="0.18"/><circle cx="9" cy="217" r="0.10" fill="#000" opacity="0.18"/><circle cx="882" cy="424" r="0.54" fill="#000" opacity="0.18"/><circle cx="295" cy="201" r="0.82" fill="#000" opacity="0.18"/><circle cx="274" cy="165" r="0.28" fill="#000" opacity="0.18"/><circle cx="301" cy="697" r="0.04" fill="#000" opacity="0.18"/><circle cx="19" cy="436" r="0.07" fill="#000" opacity="0.18"/><circle cx="813" cy="360" r="0.50" fill="#000" opacity="0.18"/><circle cx="249" cy="697" r="0.39" fill="#000" opacity="0.18"/><circle cx="101" cy="522" r="0.55" fill="#000" opacity="0.18"/><circle cx="53" cy="611" r="0.83" fill="#000" opacity="0.18"/><circle cx="498" cy="663" r="0.34" fill="#000" opacity="0.18"/><circle cx="562" cy="127" r="0.79" fill="#000" opacity="0.18"/><circle cx="357" cy="743" r="0.86" fill="#000" opacity="0.18"/><circle cx="122" cy="66" r="0.27" fill="#000" opacity="0.18"/><circle cx="597" cy="305" r="0.24" fill="#000" opacity="0.18"/><circle cx="335" cy="574" r="0.90" fill="#000" opacity="0.18"/><circle cx="803" cy="417" r="0.08" fill="#000" opacity="0.18"/><circle cx="701" cy="591" r="0.87" fill="#000" opacity="0.18"/><circle cx="940" cy="546" r="0.54" fill="#000" opacity="0.18"/><circle cx="340" cy="599" r="0.39" fill="#000" opacity="0.18"/><circle cx="210" cy="396" r="0.72" fill="#000" opacity="0.18"/><circle cx="400" cy="229" r="0.23" fill="#000" opacity="0.18"/><circle cx="765" cy="322" r="0.33" fill="#000" opacity="0.18"/><circle cx="200" cy="483" r="0.66" fill="#000" opacity="0.18"/><circle cx="720" cy="239" r="0.39" fill="#000" opacity="0.18"/><circle cx="94" cy="328" r="0.82" fill="#000" opacity="0.18"/><circle cx="663" cy="237" r="0.41" fill="#000" opacity="0.18"/><circle cx="39" cy="413" r="0.40" fill="#000" opacity="0.18"/><circle cx="653" cy="585" r="0.81" fill="#000" opacity="0.18"/><circle cx="698" cy="509" r="0.52" fill="#000" opacity="0.18"/><circle cx="477" cy="115" r="0.19" fill="#000" opacity="0.18"/><circle cx="701" cy="70" r="0.25" fill="#000" opacity="0.18"/><circle cx="74" cy="389" r="0.81" fill="#000" opacity="0.18"/><circle cx="637" cy="743" r="0.27" fill="#000" opacity="0.18"/><circle cx="794" cy="310" r="0.17" fill="#000" opacity="0.18"/><circle cx="0" cy="80" r="0.67" fill="#000" opacity="0.18"/><circle cx="19" cy="460" r="0.82" fill="#000" opacity="0.18"/><circle cx="558" cy="112" r="0.40" fill="#000" opacity="0.18"/><circle cx="781" cy="311" r="0.11" fill="#000" opacity="0.18"/><circle cx="916" cy="479" r="0.70" fill="#000" opacity="0.18"/><circle cx="83" cy="447" r="0.18" fill="#000" opacity="0.18"/><circle cx="433" cy="617" r="0.80" fill="#000" opacity="0.18"/><circle cx="436" cy="112" r="0.54" fill="#000" opacity="0.18"/><circle cx="36" cy="133" r="0.55" fill="#000" opacity="0.18"/><circle cx="141" cy="298" r="0.35" fill="#000" opacity="0.18"/><circle cx="651" cy="51" r="0.62" fill="#000" opacity="0.18"/><circle cx="381" cy="606" r="0.10" fill="#000" opacity="0.18"/>
  
  <g opacity="0.96">
    <path d="M500 664 l5 11 11 5 -11 5 -5 11 -5 -11 -11 -5 11 -5 z" fill="#c9a24b"/>
    <text x="500" y="706" text-anchor="middle" font-family="'Nanum Myeongjo', serif" font-size="34" fill="#f5efe2" letter-spacing="3">코다리조림 백반</text>
    <text x="500" y="732" text-anchor="middle" font-family="sans-serif" font-size="13" fill="#c9a24b" letter-spacing="6" opacity="0.85">Braised Pollack</text>
  </g>
</svg>